Lexend-wght500-XTRA489-SPACmin.ufo
<glyph name="period" format="2">
  <advance width="298"/>
  <unicode hex="002E"/>
  <note>
period
</note>
  <outline>
    <contour>
      <point x="253" y="64" type="qcurve" smooth="yes"/>
      <point x="253" y="36"/>
      <point x="202" y="-11"/>
      <point x="149" y="-11" type="qcurve" smooth="yes"/>
      <point x="96" y="-11"/>
      <point x="45" y="30"/>
      <point x="45" y="64" type="qcurve" smooth="yes"/>
      <point x="45" y="92"/>
      <point x="96" y="139"/>
      <point x="149" y="139" type="qcurve" smooth="yes"/>
      <point x="202" y="139"/>
      <point x="253" y="98"/>
    </contour>
  </outline>
</glyph>
<glyph name="less" format="2">
  <advance width="654"/>
  <unicode hex="003C"/>
  <note>
less
</note>
  <outline>
    <contour>
      <point x="100" y="208" type="line"/>
      <point x="100" y="295" type="line"/>
      <point x="589" y="89" type="line"/>
      <point x="541" y="4" type="line"/>
      <point x="50" y="211" type="line"/>
      <point x="50" y="292" type="line"/>
      <point x="541" y="499" type="line"/>
      <point x="589" y="414" type="line"/>
    </contour>
  </outline>
</glyph>
<glyph name="greater" format="2">
  <advance width="654"/>
  <unicode hex="003E"/>
  <note>
greater
</note>
  <outline>
    <contour>
      <point x="554" y="295" type="line"/>
      <point x="554" y="208" type="line"/>
      <point x="65" y="414" type="line"/>
      <point x="113" y="499" type="line"/>
      <point x="604" y="292" type="line"/>
      <point x="604" y="211" type="line"/>
      <point x="113" y="4" type="line"/>
      <point x="65" y="89" type="line"/>
    </contour>
  </outline>
</glyph>
<glyph name="H" format="2">
  <advance width="901"/>
  <unicode hex="0048"/>
  <note>
H
</note>
  <anchor x="457" y="0" name="bottom"/>
  <anchor x="457" y="350" name="center"/>
  <anchor x="457" y="700" name="top"/>
  <anchor x="20" y="700" name="topleft"/>
  <outline>
    <contour>
      <point x="98" y="700" type="line"/>
      <point x="206" y="700" type="line"/>
      <point x="206" y="0" type="line"/>
      <point x="98" y="0" type="line"/>
    </contour>
    <contour>
      <point x="695" y="700" type="line"/>
      <point x="803" y="700" type="line"/>
      <point x="803" y="0" type="line"/>
      <point x="695" y="0" type="line"/>
    </contour>
    <contour>
      <point x="145" y="293" type="line"/>
      <point x="146" y="397" type="line"/>
      <point x="743" y="397" type="line"/>
      <point x="743" y="293" type="line"/>
    </contour>
  </outline>
</glyph>
<glyph name="P" format="2">
  <advance width="779"/>
  <unicode hex="0050"/>
  <note>
P
</note>
  <anchor x="419" y="0" name="bottom"/>
  <anchor x="419" y="700" name="top"/>
  <outline>
    <contour>
      <point x="98" y="700" type="line"/>
      <point x="507" y="700" type="line" smooth="yes"/>
      <point x="599" y="700"/>
      <point x="734" y="575"/>
      <point x="734" y="485" type="qcurve" smooth="yes"/>
      <point x="734" y="390"/>
      <point x="587" y="258"/>
      <point x="487" y="258" type="qcurve" smooth="yes"/>
      <point x="198" y="258" type="line"/>
      <point x="206" y="282" type="line"/>
      <point x="206" y="0" type="line"/>
      <point x="98" y="0" type="line"/>
    </contour>
    <contour>
      <point x="197" y="362" type="line"/>
      <point x="477" y="362" type="line" smooth="yes"/>
      <point x="534" y="362"/>
      <point x="619" y="435"/>
      <point x="619" y="485" type="qcurve" smooth="yes"/>
      <point x="619" y="531"/>
      <point x="534" y="596"/>
      <point x="477" y="596" type="qcurve" smooth="yes"/>
      <point x="197" y="596" type="line"/>
      <point x="206" y="621" type="line"/>
      <point x="206" y="348" type="line"/>
    </contour>
  </outline>
</glyph>
<glyph name="T" format="2">
  <advance width="716"/>
  <unicode hex="0054"/>
  <note>
T
</note>
  <anchor x="357" y="0" name="bottom"/>
  <anchor x="357" y="350" name="center"/>
  <anchor x="357" y="700" name="top"/>
  <outline>
    <contour>
      <point x="409" y="0" type="line"/>
      <point x="301" y="0" type="line"/>
      <point x="301" y="651" type="line"/>
      <point x="409" y="651" type="line"/>
    </contour>
    <contour>
      <point x="681" y="596" type="line"/>
      <point x="35" y="596" type="line"/>
      <point x="35" y="700" type="line"/>
      <point x="681" y="700" type="line"/>
    </contour>
  </outline>
</glyph>
<glyph name="a" format="2">
  <advance width="774"/>
  <unicode hex="0061"/>
  <note>
a
</note>
  <anchor x="363" y="0" name="bottom"/>
  <anchor x="705" y="10" name="ogonek"/>
  <anchor x="391" y="525" name="top"/>
  <outline>
    <contour>
      <point x="599" y="525" type="line"/>
      <point x="702" y="525" type="line"/>
      <point x="702" y="0" type="line"/>
      <point x="599" y="0" type="line"/>
      <point x="599" y="145" type="line"/>
      <point x="619" y="137" type="line"/>
      <point x="619" y="91"/>
      <point x="456" y="-10"/>
      <point x="350" y="-10" type="qcurve"/>
      <point x="207" y="-10"/>
      <point x="38" y="144"/>
      <point x="38" y="263" type="qcurve"/>
      <point x="38" y="382"/>
      <point x="216" y="536"/>
      <point x="356" y="536" type="qcurve"/>
      <point x="472" y="536"/>
      <point x="629" y="438"/>
      <point x="629" y="391" type="qcurve"/>
      <point x="599" y="389" type="line"/>
    </contour>
    <contour>
      <point x="143" y="263" type="qcurve"/>
      <point x="143" y="187"/>
      <point x="272" y="85"/>
      <point x="373" y="85" type="qcurve"/>
      <point x="475" y="85"/>
      <point x="603" y="187"/>
      <point x="603" y="263" type="qcurve"/>
      <point x="603" y="338"/>
      <point x="475" y="440"/>
      <point x="373" y="440" type="qcurve"/>
      <point x="272" y="440"/>
      <point x="143" y="338"/>
    </contour>
  </outline>
</glyph>
<glyph name="b" format="2">
  <advance width="760"/>
  <unicode hex="0062"/>
  <note>
b
</note>
  <anchor x="398" y="0" name="bottom"/>
  <anchor x="433" y="527" name="top"/>
  <outline>
    <contour>
      <point x="405" y="536" type="qcurve"/>
      <point x="536" y="536"/>
      <point x="720" y="383"/>
      <point x="720" y="264" type="qcurve"/>
      <point x="720" y="145"/>
      <point x="538" y="-10"/>
      <point x="398" y="-10" type="qcurve"/>
      <point x="293" y="-10"/>
      <point x="141" y="88"/>
      <point x="129" y="127" type="qcurve"/>
      <point x="175" y="131" type="line"/>
      <point x="175" y="3" type="line"/>
      <point x="72" y="3" type="line"/>
      <point x="72" y="740" type="line"/>
      <point x="175" y="740" type="line"/>
      <point x="175" y="405" type="line"/>
      <point x="139" y="404" type="line"/>
      <point x="150" y="443"/>
      <point x="301" y="536"/>
    </contour>
    <contour>
      <point x="620" y="264" type="qcurve"/>
      <point x="620" y="340"/>
      <point x="491" y="441"/>
      <point x="391" y="441" type="qcurve"/>
      <point x="290" y="441"/>
      <point x="160" y="340"/>
      <point x="160" y="264" type="qcurve"/>
      <point x="160" y="189"/>
      <point x="290" y="86"/>
      <point x="391" y="86" type="qcurve"/>
      <point x="491" y="86"/>
      <point x="620" y="189"/>
    </contour>
  </outline>
</glyph>
<glyph name="c" format="2">
  <advance width="685"/>
  <unicode hex="0063"/>
  <note>
c
</note>
  <anchor x="383" y="0" name="bottom"/>
  <anchor x="388" y="525" name="top"/>
  <outline>
    <contour>
      <point x="365" y="443" type="qcurve" smooth="yes"/>
      <point x="268" y="443"/>
      <point x="148" y="341"/>
      <point x="148" y="263" type="qcurve" smooth="yes"/>
      <point x="148" y="185"/>
      <point x="275" y="83"/>
      <point x="366" y="83" type="qcurve"/>
      <point x="447" y="83"/>
      <point x="562" y="131"/>
      <point x="604" y="156" type="qcurve"/>
      <point x="660" y="76" type="line"/>
      <point x="604" y="42"/>
      <point x="459" y="-10"/>
      <point x="365" y="-10" type="qcurve"/>
      <point x="227" y="-10"/>
      <point x="40" y="147"/>
      <point x="40" y="263" type="qcurve" smooth="yes"/>
      <point x="40" y="379"/>
      <point x="227" y="536"/>
      <point x="365" y="536" type="qcurve"/>
      <point x="457" y="536"/>
      <point x="615" y="482"/>
      <point x="660" y="434" type="qcurve"/>
      <point x="602" y="350" type="line"/>
      <point x="561" y="389"/>
      <point x="429" y="443"/>
    </contour>
  </outline>
</glyph>
<glyph name="l" format="2">
  <advance width="251"/>
  <unicode hex="006C"/>
  <note>
l
</note>
  <anchor x="127" y="0" name="bottom"/>
  <anchor x="324" y="370" name="center"/>
  <anchor x="126" y="740" name="top"/>
  <anchor x="322" y="700" name="topright"/>
  <outline>
    <contour>
      <point x="177" y="0" type="line"/>
      <point x="74" y="0" type="line"/>
      <point x="74" y="740" type="line"/>
      <point x="177" y="740" type="line"/>
    </contour>
  </outline>
</glyph>
<glyph name="n" format="2">
  <advance width="715"/>
  <unicode hex="006E"/>
  <note>
n
</note>
  <anchor x="374" y="0" name="bottom"/>
  <anchor x="394" y="525" name="top"/>
  <outline>
    <contour>
      <point x="397" y="536" type="qcurve"/>
      <point x="521" y="536"/>
      <point x="647" y="403"/>
      <point x="647" y="310" type="qcurve"/>
      <point x="647" y="0" type="line"/>
      <point x="544" y="0" type="line"/>
      <point x="544" y="293" type="line"/>
      <point x="544" y="358"/>
      <point x="443" y="440"/>
      <point x="373" y="440" type="qcurve" smooth="yes"/>
      <point x="287" y="440"/>
      <point x="175" y="329"/>
      <point x="175" y="278" type="qcurve"/>
      <point x="175" y="0" type="line"/>
      <point x="175" y="0"/>
      <point x="72" y="0"/>
      <point x="72" y="0" type="qcurve"/>
      <point x="72" y="525" type="line"/>
      <point x="175" y="525" type="line"/>
      <point x="175" y="377" type="line"/>
      <point x="137" y="375" type="line"/>
      <point x="171" y="431"/>
      <point x="302" y="536"/>
    </contour>
  </outline>
</glyph>
<glyph name="t" format="2">
  <advance width="524"/>
  <unicode hex="0074"/>
  <note>
t
</note>
  <anchor x="253" y="0" name="bottom"/>
  <anchor x="249" y="233" name="center"/>
  <anchor x="249" y="687" name="top"/>
  <anchor x="525" y="700" name="topright"/>
  <outline>
    <contour>
      <point x="300" y="689" type="line"/>
      <point x="300" y="0" type="line"/>
      <point x="197" y="0" type="line"/>
      <point x="197" y="689" type="line"/>
    </contour>
    <contour>
      <point x="502" y="525" type="line"/>
      <point x="502" y="425" type="line"/>
      <point x="28" y="425" type="line"/>
      <point x="28" y="525" type="line"/>
    </contour>
  </outline>
</glyph>
<glyph name="v" format="2">
  <advance width="743"/>
  <unicode hex="0076"/>
  <note>
v
</note>
  <anchor x="371" y="0" name="bottom"/>
  <anchor x="371" y="525" name="top"/>
  <outline>
    <contour>
      <point x="22" y="525" type="line"/>
      <point x="143" y="525" type="line"/>
      <point x="383" y="80" type="line"/>
      <point x="354" y="71" type="line"/>
      <point x="605" y="525" type="line"/>
      <point x="721" y="525" type="line"/>
      <point x="414" y="0" type="line"/>
      <point x="320" y="0" type="line"/>
    </contour>
  </outline>
</glyph>
<glyph name="section" format="2">
  <advance width="689"/>
  <unicode hex="00A7"/>
  <note>
section
</note>
  <outline>
    <contour>
      <point x="450" y="435" type="qcurve" smooth="yes"/>
      <point x="549" y="422"/>
      <point x="653" y="345"/>
      <point x="653" y="276" type="qcurve" smooth="yes"/>
      <point x="653" y="191"/>
      <point x="535" y="104"/>
      <point x="448" y="105" type="qcurve"/>
      <point x="443" y="175" type="line"/>
      <point x="540" y="145"/>
      <point x="638" y="79"/>
      <point x="638" y="13" type="qcurve" smooth="yes"/>
      <point x="638" y="-76"/>
      <point x="475" y="-168"/>
      <point x="344" y="-168" type="qcurve" smooth="yes"/>
      <point x="262" y="-168"/>
      <point x="112" y="-119"/>
      <point x="56" y="-73" type="qcurve"/>
      <point x="121" y="21" type="line"/>
      <point x="172" y="-20"/>
      <point x="281" y="-62"/>
      <point x="343" y="-62" type="qcurve" smooth="yes"/>
      <point x="415" y="-62"/>
      <point x="520" y="-34"/>
      <point x="520" y="0" type="qcurve" smooth="yes"/>
      <point x="520" y="41"/>
      <point x="342" y="76"/>
      <point x="228" y="97" type="qcurve" smooth="yes"/>
      <point x="135" y="114"/>
      <point x="47" y="199"/>
      <point x="47" y="274" type="qcurve" smooth="yes"/>
      <point x="47" y="325"/>
      <point x="123" y="426"/>
      <point x="201" y="427" type="qcurve"/>
      <point x="190" y="382" type="line"/>
      <point x="125" y="405"/>
      <point x="74" y="479"/>
      <point x="74" y="530" type="qcurve" smooth="yes"/>
      <point x="74" y="626"/>
      <point x="235" y="711"/>
      <point x="355" y="711" type="qcurve" smooth="yes"/>
      <point x="433" y="711"/>
      <point x="571" y="661"/>
      <point x="616" y="615" type="qcurve"/>
      <point x="559" y="525" type="line"/>
      <point x="519" y="559"/>
      <point x="399" y="600"/>
      <point x="345" y="600" type="qcurve" smooth="yes"/>
      <point x="286" y="600"/>
      <point x="192" y="574"/>
      <point x="192" y="531" type="qcurve" smooth="yes"/>
      <point x="192" y="489"/>
      <point x="313" y="453"/>
    </contour>
    <contour>
      <point x="154" y="284" type="qcurve" smooth="yes"/>
      <point x="154" y="265"/>
      <point x="191" y="217"/>
      <point x="255" y="209" type="qcurve" smooth="yes"/>
      <point x="420" y="187" type="line" smooth="yes"/>
      <point x="433" y="186"/>
      <point x="455" y="184"/>
      <point x="465" y="184" type="qcurve" smooth="yes"/>
      <point x="514" y="184"/>
      <point x="555" y="219"/>
      <point x="555" y="249" type="qcurve" smooth="yes"/>
      <point x="555" y="279"/>
      <point x="499" y="313"/>
      <point x="439" y="322" type="qcurve" smooth="yes"/>
      <point x="260" y="349" type="line"/>
      <point x="255" y="350"/>
      <point x="244" y="351"/>
      <point x="240" y="351" type="qcurve" smooth="yes"/>
      <point x="206" y="351"/>
      <point x="154" y="315"/>
    </contour>
  </outline>
</glyph>
<glyph name="registered" format="2">
  <advance width="507"/>
  <unicode hex="00AE"/>
  <note>
registered
</note>
  <outline>
    <contour>
      <point x="488" y="484" type="qcurve" smooth="yes"/>
      <point x="488" y="390"/>
      <point x="352" y="259"/>
      <point x="259" y="259" type="qcurve" smooth="yes"/>
      <point x="164" y="259"/>
      <point x="29" y="390"/>
      <point x="29" y="484" type="qcurve" smooth="yes"/>
      <point x="29" y="577"/>
      <point x="164" y="709"/>
      <point x="259" y="709" type="qcurve" smooth="yes"/>
      <point x="352" y="709"/>
      <point x="488" y="577"/>
    </contour>
    <contour>
      <point x="356" y="534" type="qcurve" smooth="yes"/>
      <point x="356" y="497"/>
      <point x="308" y="461"/>
      <point x="282" y="461" type="qcurve"/>
      <point x="211" y="461" type="line"/>
      <point x="229" y="470" type="line"/>
      <point x="229" y="367" type="line"/>
      <point x="172" y="367" type="line"/>
      <point x="172" y="606" type="line"/>
      <point x="282" y="606" type="line" smooth="yes"/>
      <point x="313" y="606"/>
      <point x="356" y="567"/>
    </contour>
    <contour>
      <point x="213" y="502" type="line"/>
      <point x="262" y="502" type="line" smooth="yes"/>
      <point x="278" y="502"/>
      <point x="301" y="517"/>
      <point x="301" y="529" type="qcurve" smooth="yes"/>
      <point x="301" y="543"/>
      <point x="280" y="556"/>
      <point x="264" y="556" type="qcurve" smooth="yes"/>
      <point x="210" y="556" type="line"/>
      <point x="229" y="564" type="line"/>
      <point x="229" y="495" type="line"/>
    </contour>
    <contour>
      <point x="91" y="484" type="qcurve" smooth="yes"/>
      <point x="91" y="416"/>
      <point x="190" y="322"/>
      <point x="259" y="322" type="qcurve" smooth="yes"/>
      <point x="327" y="322"/>
      <point x="425" y="416"/>
      <point x="425" y="484" type="qcurve" smooth="yes"/>
      <point x="425" y="552"/>
      <point x="327" y="647"/>
      <point x="259" y="647" type="qcurve" smooth="yes"/>
      <point x="190" y="647"/>
      <point x="91" y="552"/>
    </contour>
    <contour>
      <point x="292" y="367" type="line"/>
      <point x="255" y="467" type="line"/>
      <point x="308" y="481" type="line"/>
      <point x="352" y="367" type="line"/>
    </contour>
  </outline>
</glyph>
<glyph name="multiply" format="2">
  <advance width="606"/>
  <unicode hex="00D7"/>
  <note>
multiply
</note>
  <outline>
    <contour>
      <point x="571" y="87" type="line"/>
      <point x="485" y="6" type="line"/>
      <point x="35" y="453" type="line"/>
      <point x="121" y="534" type="line"/>
    </contour>
    <contour>
      <point x="121" y="6" type="line"/>
      <point x="45" y="89" type="line"/>
      <point x="478" y="524" type="line"/>
      <point x="555" y="443" type="line"/>
    </contour>
  </outline>
</glyph>
<glyph name="thorn" format="2">
  <advance width="771"/>
  <unicode hex="00FE"/>
  <note>
thorn
</note>
  <anchor x="505" y="0" name="bottom"/>
  <anchor x="505" y="525" name="top"/>
  <outline>
    <contour>
      <point x="416" y="534" type="qcurve"/>
      <point x="550" y="534"/>
      <point x="731" y="382"/>
      <point x="731" y="263" type="qcurve"/>
      <point x="731" y="144"/>
      <point x="550" y="-9"/>
      <point x="419" y="-9" type="qcurve"/>
      <point x="314" y="-9"/>
      <point x="162" y="78"/>
      <point x="150" y="117" type="qcurve"/>
      <point x="176" y="131" type="line"/>
      <point x="176" y="-220" type="line"/>
      <point x="72" y="-220" type="line"/>
      <point x="72" y="740" type="line"/>
      <point x="176" y="740" type="line"/>
      <point x="176" y="405" type="line"/>
      <point x="160" y="414" type="line"/>
      <point x="171" y="454"/>
      <point x="320" y="534"/>
    </contour>
    <contour>
      <point x="632" y="263" type="qcurve"/>
      <point x="632" y="338"/>
      <point x="503" y="439"/>
      <point x="402" y="439" type="qcurve"/>
      <point x="301" y="439"/>
      <point x="171" y="338"/>
      <point x="171" y="263" type="qcurve"/>
      <point x="171" y="188"/>
      <point x="301" y="86"/>
      <point x="402" y="86" type="qcurve"/>
      <point x="503" y="86"/>
      <point x="632" y="188"/>
    </contour>
  </outline>
</glyph>
<glyph name="lslash" format="2">
  <advance width="394"/>
  <unicode hex="0142"/>
  <note>
lslash
</note>
  <anchor x="368" y="0" name="bottom"/>
  <anchor x="368" y="370" name="center"/>
  <anchor x="368" y="740" name="top"/>
  <anchor x="609" y="740" name="topright"/>
  <outline>
    <contour>
      <point x="241" y="0" type="line"/>
      <point x="138" y="0" type="line"/>
      <point x="138" y="740" type="line"/>
      <point x="241" y="740" type="line"/>
    </contour>
    <contour>
      <point x="23" y="294" type="line"/>
      <point x="-3" y="386" type="line"/>
      <point x="368" y="478" type="line"/>
      <point x="397" y="389" type="line"/>
    </contour>
  </outline>
</glyph>
<glyph name="Nhookleft" format="2">
  <advance width="1002"/>
  <unicode hex="019D"/>
  <outline>
    <contour>
      <point x="275" y="291" type="qcurve"/>
      <point x="275" y="106" type="line" smooth="yes"/>
      <point x="275" y="-34"/>
      <point x="119" y="-197"/>
      <point x="5" y="-197" type="qcurve"/>
      <point x="-34" y="-95" type="line"/>
      <point x="63" y="-95"/>
      <point x="147" y="26"/>
      <point x="147" y="131" type="qcurve" smooth="yes"/>
      <point x="147" y="700" type="line"/>
      <point x="254" y="700" type="line"/>
      <point x="822" y="147" type="line"/>
      <point x="796" y="118" type="line"/>
      <point x="784" y="193"/>
      <point x="776" y="388"/>
      <point x="776" y="470" type="qcurve"/>
      <point x="776" y="700" type="line"/>
      <point x="904" y="700" type="line"/>
      <point x="904" y="0" type="line"/>
      <point x="795" y="0" type="line"/>
      <point x="234" y="532" type="line"/>
      <point x="255" y="566" type="line"/>
      <point x="258" y="531"/>
      <point x="265" y="462"/>
      <point x="268" y="428" type="qcurve" smooth="yes"/>
      <point x="271" y="394"/>
      <point x="275" y="325"/>
    </contour>
  </outline>
</glyph>
<glyph name="nhookleft" format="2">
  <advance width="820"/>
  <unicode hex="0272"/>
  <anchor x="584" y="0" name="bottom"/>
  <anchor x="604" y="525" name="top"/>
  <outline>
    <contour>
      <point x="502" y="536" type="qcurve"/>
      <point x="626" y="536"/>
      <point x="752" y="403"/>
      <point x="752" y="310" type="qcurve"/>
      <point x="752" y="0" type="line"/>
      <point x="649" y="0" type="line"/>
      <point x="649" y="293" type="line"/>
      <point x="649" y="358"/>
      <point x="548" y="440"/>
      <point x="478" y="440" type="qcurve" smooth="yes"/>
      <point x="392" y="440"/>
      <point x="280" y="329"/>
      <point x="280" y="278" type="qcurve"/>
      <point x="280" y="0" type="line"/>
      <point x="246" y="0"/>
      <point x="211" y="0"/>
      <point x="177" y="0" type="qcurve"/>
      <point x="177" y="525" type="line"/>
      <point x="280" y="525" type="line"/>
      <point x="280" y="377" type="line"/>
      <point x="242" y="375" type="line"/>
      <point x="276" y="431"/>
      <point x="407" y="536"/>
    </contour>
    <contour>
      <point x="177" y="5" type="line"/>
      <point x="280" y="14" type="line"/>
      <point x="280" y="-25" type="line"/>
      <point x="280" y="-104"/>
      <point x="124" y="-197"/>
      <point x="10" y="-197" type="qcurve"/>
      <point x="-29" y="-105" type="line"/>
      <point x="78" y="-105"/>
      <point x="177" y="-49"/>
      <point x="177" y="0" type="qcurve"/>
    </contour>
  </outline>
</glyph>
<glyph name="caron" format="2">
  <advance width="362"/>
  <unicode hex="02C7"/>
  <anchor x="197" y="515" name="_top"/>
  <outline>
    <contour>
      <point x="196" y="660" type="line"/>
      <point x="166" y="660" type="line"/>
      <point x="291" y="733" type="line"/>
      <point x="329" y="700" type="line"/>
      <point x="224" y="587" type="line"/>
      <point x="138" y="587" type="line"/>
      <point x="33" y="700" type="line"/>
      <point x="71" y="733" type="line"/>
    </contour>
  </outline>
</glyph>
<glyph name="breve" format="2">
  <advance width="402"/>
  <unicode hex="02D8"/>
  <anchor x="218" y="548" name="_top"/>
  <outline>
    <contour>
      <point x="201" y="570" type="qcurve" smooth="yes"/>
      <point x="139" y="570"/>
      <point x="52" y="655"/>
      <point x="39" y="724" type="qcurve"/>
      <point x="113" y="736" type="line"/>
      <point x="124" y="704"/>
      <point x="170" y="651"/>
      <point x="201" y="651" type="qcurve" smooth="yes"/>
      <point x="232" y="651"/>
      <point x="278" y="704"/>
      <point x="289" y="736" type="qcurve"/>
      <point x="363" y="724" type="line"/>
      <point x="350" y="655"/>
      <point x="263" y="570"/>
    </contour>
  </outline>
</glyph>
<glyph name="emdash" format="2">
  <advance width="938"/>
  <unicode hex="2014"/>
  <note>
emdash
</note>
  <outline>
    <contour>
      <point x="885" y="243" type="line"/>
      <point x="53" y="243" type="line"/>
      <point x="53" y="337" type="line"/>
      <point x="885" y="337" type="line"/>
    </contour>
  </outline>
</glyph>
<glyph name="naira" format="2">
  <advance width="985"/>
  <unicode hex="20A6"/>
  <anchor x="601" y="0" name="bottom"/>
  <anchor x="601" y="700" name="top"/>
  <outline>
    <contour>
      <point x="771" y="470" type="qcurve"/>
      <point x="771" y="700" type="line"/>
      <point x="879" y="700" type="line"/>
      <point x="879" y="0" type="line"/>
      <point x="770" y="0" type="line"/>
      <point x="209" y="552" type="line"/>
      <point x="210" y="566" type="line"/>
      <point x="216" y="497"/>
      <point x="230" y="360"/>
      <point x="230" y="291" type="qcurve"/>
      <point x="230" y="0" type="line"/>
      <point x="122" y="0" type="line"/>
      <point x="122" y="700" type="line"/>
      <point x="229" y="700" type="line"/>
      <point x="797" y="127" type="line"/>
      <point x="791" y="118" type="line"/>
      <point x="779" y="193"/>
      <point x="771" y="388"/>
    </contour>
    <contour>
      <point x="132" y="297" type="line"/>
      <point x="10" y="297" type="line"/>
      <point x="10" y="407" type="line"/>
      <point x="134" y="407" type="line"/>
      <point x="168" y="400" type="line"/>
      <point x="297" y="400" type="line"/>
      <point x="297" y="304" type="line"/>
      <point x="162" y="304" type="line"/>
    </contour>
    <contour>
      <point x="694" y="400" type="line"/>
      <point x="800" y="400" type="line"/>
      <point x="842" y="407" type="line"/>
      <point x="975" y="407" type="line"/>
      <point x="975" y="297" type="line"/>
      <point x="837" y="297" type="line"/>
      <point x="796" y="304" type="line"/>
      <point x="694" y="304" type="line"/>
    </contour>
    <contour>
      <point x="297" y="400" type="line"/>
      <point x="694" y="400" type="line"/>
      <point x="694" y="304" type="line"/>
      <point x="297" y="304" type="line"/>
    </contour>
  </outline>
</glyph>
<glyph name="euro" format="2">
  <advance width="806"/>
  <unicode hex="20AC"/>
  <note>
Euro
</note>
  <outline>
    <contour>
      <point x="507" y="221" type="line"/>
      <point x="15" y="222" type="line"/>
      <point x="15" y="316" type="line"/>
      <point x="507" y="314" type="line"/>
    </contour>
    <contour>
      <point x="507" y="367" type="line"/>
      <point x="15" y="368" type="line"/>
      <point x="15" y="461" type="line"/>
      <point x="507" y="460" type="line"/>
    </contour>
    <contour>
      <point x="519" y="-10" type="qcurve"/>
      <point x="356" y="-10"/>
      <point x="112" y="179"/>
      <point x="112" y="350" type="qcurve"/>
      <point x="112" y="504"/>
      <point x="346" y="706"/>
      <point x="519" y="706" type="qcurve"/>
      <point x="581" y="706"/>
      <point x="701" y="681"/>
      <point x="750" y="659" type="qcurve"/>
      <point x="701" y="560" type="line"/>
      <point x="662" y="576"/>
      <point x="569" y="594"/>
      <point x="519" y="594" type="qcurve"/>
      <point x="394" y="594"/>
      <point x="229" y="460"/>
      <point x="229" y="350" type="qcurve"/>
      <point x="229" y="228"/>
      <point x="399" y="101"/>
      <point x="519" y="101" type="qcurve"/>
      <point x="569" y="101"/>
      <point x="661" y="119"/>
      <point x="701" y="136" type="qcurve"/>
      <point x="751" y="37" type="line"/>
      <point x="702" y="16"/>
      <point x="581" y="-10"/>
    </contour>
  </outline>
</glyph>
<glyph name="kip" format="2">
  <advance width="997"/>
  <unicode hex="20AD"/>
  <anchor x="583" y="0" name="bottom"/>
  <anchor x="583" y="700" name="top"/>
  <outline>
    <contour>
      <point x="587" y="320" type="line"/>
      <point x="587" y="431" type="line"/>
      <point x="912" y="431" type="line"/>
      <point x="912" y="320" type="line"/>
    </contour>
    <contour>
      <point x="263" y="431" type="line"/>
      <point x="259" y="320" type="line"/>
      <point x="30" y="320" type="line"/>
      <point x="30" y="431" type="line"/>
    </contour>
    <contour>
      <point x="209" y="0" type="line"/>
      <point x="209" y="700" type="line"/>
      <point x="317" y="700" type="line"/>
      <point x="317" y="0" type="line"/>
    </contour>
    <contour>
      <point x="286" y="174" type="line"/>
      <point x="286" y="297" type="line"/>
      <point x="802" y="700" type="line"/>
      <point x="962" y="700" type="line"/>
    </contour>
    <contour>
      <point x="804" y="0" type="line"/>
      <point x="497" y="379" type="line"/>
      <point x="564" y="465" type="line"/>
      <point x="948" y="0" type="line"/>
    </contour>
  </outline>
</glyph>
<glyph name="rupeeIndian" format="2">
  <advance width="681"/>
  <unicode hex="20B9"/>
  <outline>
    <contour>
      <point x="404" y="580" type="line"/>
      <point x="377" y="640" type="line"/>
      <point x="451" y="640"/>
      <point x="578" y="541"/>
      <point x="578" y="457" type="qcurve"/>
      <point x="578" y="377"/>
      <point x="409" y="247"/>
      <point x="287" y="247" type="qcurve"/>
      <point x="224" y="247" type="line"/>
      <point x="153" y="316" type="line"/>
      <point x="153" y="367" type="line"/>
      <point x="297" y="367" type="line"/>
      <point x="369" y="367"/>
      <point x="448" y="435"/>
      <point x="448" y="478" type="qcurve"/>
      <point x="448" y="528"/>
      <point x="341" y="580"/>
      <point x="269" y="580" type="qcurve" smooth="yes"/>
      <point x="68" y="580" type="line"/>
      <point x="68" y="700" type="line"/>
      <point x="646" y="700" type="line"/>
      <point x="646" y="580" type="line"/>
    </contour>
    <contour>
      <point x="153" y="316" type="line"/>
      <point x="280" y="341" type="line"/>
      <point x="618" y="-1" type="line"/>
      <point x="461" y="0" type="line"/>
    </contour>
    <contour>
      <point x="651" y="421" type="line"/>
      <point x="243" y="421" type="line"/>
      <point x="243" y="507" type="line"/>
      <point x="651" y="507" type="line"/>
    </contour>
  </outline>
</glyph>
<glyph name="Ohm" format="2">
  <advance width="907"/>
  <unicode hex="2126"/>
  <note>
Ohm
</note>
  <outline>
    <contour>
      <point x="71" y="384" type="qcurve" smooth="yes"/>
      <point x="71" y="525"/>
      <point x="292" y="710"/>
      <point x="454" y="710" type="qcurve"/>
      <point x="614" y="710"/>
      <point x="836" y="526"/>
      <point x="836" y="383" type="qcurve" smooth="yes"/>
      <point x="836" y="288"/>
      <point x="731" y="118"/>
      <point x="677" y="66" type="qcurve"/>
      <point x="658" y="113" type="line"/>
      <point x="882" y="113" type="line"/>
      <point x="882" y="0" type="line"/>
      <point x="552" y="0" type="line"/>
      <point x="552" y="56" type="line"/>
      <point x="590" y="100"/>
      <point x="654" y="175"/>
      <point x="676" y="214" type="qcurve" smooth="yes"/>
      <point x="696" y="249"/>
      <point x="719" y="331"/>
      <point x="719" y="383" type="qcurve" smooth="yes"/>
      <point x="719" y="475"/>
      <point x="566" y="596"/>
      <point x="454" y="596" type="qcurve"/>
      <point x="341" y="596"/>
      <point x="189" y="475"/>
      <point x="189" y="383" type="qcurve" smooth="yes"/>
      <point x="189" y="331"/>
      <point x="209" y="248"/>
      <point x="225" y="214" type="qcurve" smooth="yes"/>
      <point x="248" y="168"/>
      <point x="316" y="94"/>
      <point x="353" y="56" type="qcurve"/>
      <point x="353" y="0" type="line"/>
      <point x="25" y="0" type="line"/>
      <point x="25" y="113" type="line"/>
      <point x="256" y="113" type="line"/>
      <point x="231" y="65" type="line"/>
      <point x="175" y="119"/>
      <point x="71" y="288"/>
    </contour>
  </outline>
</glyph>
<glyph name="estimated" format="2">
  <advance width="629"/>
  <unicode hex="212E"/>
  <note>
estimated
</note>
  <outline>
    <contour>
      <point x="550" y="115" type="qcurve" smooth="yes"/>
      <point x="504" y="49"/>
      <point x="398" y="-11"/>
      <point x="319" y="-11" type="qcurve" smooth="yes"/>
      <point x="194" y="-11"/>
      <point x="43" y="162"/>
      <point x="43" y="285" type="qcurve" smooth="yes"/>
      <point x="43" y="409"/>
      <point x="194" y="581"/>
      <point x="319" y="581" type="qcurve" smooth="yes"/>
      <point x="436" y="581"/>
      <point x="588" y="429"/>
      <point x="595" y="309" type="qcurve" smooth="yes"/>
      <point x="596" y="300"/>
      <point x="584" y="285"/>
      <point x="573" y="285" type="qcurve" smooth="yes"/>
      <point x="153" y="285" type="line"/>
      <point x="158" y="292" type="line"/>
      <point x="158" y="98" type="line" smooth="yes"/>
      <point x="158" y="96"/>
      <point x="159" y="93"/>
      <point x="160" y="92" type="qcurve" smooth="yes"/>
      <point x="191" y="61"/>
      <point x="273" y="28"/>
      <point x="319" y="28" type="qcurve" smooth="yes"/>
      <point x="382" y="28"/>
      <point x="480" y="80"/>
      <point x="517" y="139" type="qcurve"/>
      <point x="520" y="144"/>
      <point x="529" y="150"/>
      <point x="534" y="150" type="qcurve" smooth="yes"/>
      <point x="542" y="150"/>
      <point x="556" y="140"/>
      <point x="556" y="130" type="qcurve" smooth="yes"/>
      <point x="556" y="126"/>
      <point x="552" y="118"/>
    </contour>
    <contour>
      <point x="149" y="324" type="line"/>
      <point x="491" y="324" type="line"/>
      <point x="482" y="320" type="line"/>
      <point x="482" y="473" type="line" smooth="yes"/>
      <point x="482" y="474"/>
      <point x="480" y="477"/>
      <point x="479" y="478" type="qcurve"/>
      <point x="446" y="511"/>
      <point x="363" y="543"/>
      <point x="318" y="543" type="qcurve" smooth="yes"/>
      <point x="273" y="543"/>
      <point x="191" y="511"/>
      <point x="160" y="479" type="qcurve" smooth="yes"/>
      <point x="159" y="478"/>
      <point x="158" y="475"/>
      <point x="158" y="473" type="qcurve" smooth="yes"/>
      <point x="158" y="314" type="line"/>
    </contour>
  </outline>
</glyph>
<glyph name="partialdiff" format="2">
  <advance width="730"/>
  <unicode hex="2202"/>
  <note>
partialdiff
</note>
  <outline>
    <contour>
      <point x="690" y="297" type="qcurve" smooth="yes"/>
      <point x="690" y="181"/>
      <point x="520" y="-7"/>
      <point x="354" y="-7" type="qcurve"/>
      <point x="223" y="-7"/>
      <point x="40" y="152"/>
      <point x="40" y="265" type="qcurve"/>
      <point x="40" y="378"/>
      <point x="229" y="536"/>
      <point x="342" y="536" type="qcurve"/>
      <point x="449" y="536"/>
      <point x="604" y="439"/>
      <point x="635" y="362" type="qcurve"/>
      <point x="567" y="345" type="line"/>
      <point x="567" y="449"/>
      <point x="322" y="633"/>
      <point x="215" y="656" type="qcurve"/>
      <point x="303" y="735" type="line"/>
      <point x="378" y="711"/>
      <point x="519" y="618"/>
      <point x="573" y="558" type="qcurve" smooth="yes"/>
      <point x="626" y="500"/>
      <point x="690" y="364"/>
    </contour>
    <contour>
      <point x="156" y="265" type="qcurve"/>
      <point x="156" y="194"/>
      <point x="273" y="97"/>
      <point x="357" y="97" type="qcurve"/>
      <point x="450" y="97"/>
      <point x="579" y="194"/>
      <point x="579" y="265" type="qcurve"/>
      <point x="579" y="334"/>
      <point x="451" y="431"/>
      <point x="357" y="431" type="qcurve"/>
      <point x="273" y="431"/>
      <point x="156" y="335"/>
    </contour>
  </outline>
</glyph>
<glyph name="bulletoperator" format="2">
  <advance width="264"/>
  <unicode hex="2219"/>
  <note>
bulletoperator
</note>
  <outline>
    <contour>
      <point x="214" y="301" type="qcurve" smooth="yes"/>
      <point x="214" y="267"/>
      <point x="165" y="219"/>
      <point x="133" y="219" type="qcurve" smooth="yes"/>
      <point x="99" y="219"/>
      <point x="50" y="267"/>
      <point x="50" y="301" type="qcurve" smooth="yes"/>
      <point x="50" y="334"/>
      <point x="99" y="383"/>
      <point x="133" y="383" type="qcurve" smooth="yes"/>
      <point x="165" y="383"/>
      <point x="214" y="334"/>
    </contour>
  </outline>
</glyph>
<glyph name="integral" format="2">
  <advance width="752"/>
  <unicode hex="222B"/>
  <note>
integral
</note>
  <outline>
    <contour>
      <point x="136" y="-127" type="qcurve" smooth="yes"/>
      <point x="104" y="-127"/>
      <point x="25" y="-90"/>
      <point x="0" y="-71" type="qcurve"/>
      <point x="47" y="14" type="line"/>
      <point x="66" y="-2"/>
      <point x="119" y="-17"/>
      <point x="138" y="-17" type="qcurve" smooth="yes"/>
      <point x="182" y="-17"/>
      <point x="227" y="35"/>
      <point x="239" y="72" type="qcurve" smooth="yes"/>
      <point x="390" y="547" type="line" smooth="yes"/>
      <point x="422" y="648"/>
      <point x="536" y="745"/>
      <point x="617" y="745" type="qcurve" smooth="yes"/>
      <point x="665" y="745"/>
      <point x="740" y="727"/>
      <point x="760" y="710" type="qcurve"/>
      <point x="731" y="609" type="line"/>
      <point x="699" y="625"/>
      <point x="637" y="638"/>
      <point x="618" y="638" type="qcurve" smooth="yes"/>
      <point x="566" y="638"/>
      <point x="521" y="581"/>
      <point x="509" y="544" type="qcurve" smooth="yes"/>
      <point x="359" y="71" type="line" smooth="yes"/>
      <point x="327" y="-30"/>
      <point x="220" y="-127"/>
    </contour>
  </outline>
</glyph>
<glyph name="greaterequal" format="2">
  <advance width="767"/>
  <unicode hex="2265"/>
  <note>
greaterequal
</note>
  <outline>
    <contour>
      <point x="703" y="0" type="line"/>
      <point x="66" y="0" type="line"/>
      <point x="66" y="90" type="line"/>
      <point x="703" y="90" type="line"/>
    </contour>
    <contour>
      <point x="74" y="437" type="line"/>
      <point x="96" y="518" type="line"/>
      <point x="668" y="360" type="line"/>
      <point x="668" y="295" type="line"/>
      <point x="96" y="138" type="line"/>
      <point x="67" y="212" type="line"/>
      <point x="597" y="357" type="line"/>
      <point x="602" y="294" type="line"/>
    </contour>
  </outline>
</glyph>
<glyph name="lozenge" format="2">
  <advance width="696"/>
  <unicode hex="25CA"/>
  <note>
lozenge
</note>
  <outline>
    <contour>
      <point x="349" y="-42" type="line"/>
      <point x="347" y="-42" type="line"/>
      <point x="36" y="327" type="line"/>
      <point x="36" y="329" type="line"/>
      <point x="347" y="689" type="line"/>
      <point x="349" y="689" type="line"/>
      <point x="660" y="331" type="line"/>
      <point x="660" y="329" type="line"/>
    </contour>
    <contour>
      <point x="142" y="335" type="line"/>
      <point x="357" y="82" type="line"/>
      <point x="340" y="84" type="line"/>
      <point x="560" y="343" type="line"/>
      <point x="560" y="312" type="line"/>
      <point x="338" y="565" type="line"/>
      <point x="358" y="565" type="line"/>
      <point x="139" y="316" type="line"/>
    </contour>
  </outline>
</glyph>
<glyph name="a.ss01" format="2">
  <advance width="734"/>
  <note>
a
</note>
  <anchor x="364" y="0" name="bottom"/>
  <anchor x="681" y="10" name="ogonek"/>
  <anchor x="358" y="525" name="top"/>
  <outline>
    <contour>
      <point x="350" y="536" type="qcurve" smooth="yes"/>
      <point x="497" y="536"/>
      <point x="676" y="431"/>
      <point x="676" y="304" type="qcurve"/>
      <point x="676" y="0" type="line"/>
      <point x="583" y="0" type="line"/>
      <point x="583" y="282" type="line"/>
      <point x="583" y="366"/>
      <point x="460" y="442"/>
      <point x="348" y="442" type="qcurve" smooth="yes"/>
      <point x="293" y="442"/>
      <point x="171" y="411"/>
      <point x="124" y="374" type="qcurve"/>
      <point x="67" y="445" type="line"/>
      <point x="121" y="483"/>
      <point x="263" y="536"/>
    </contour>
    <contour>
      <point x="384" y="319" type="qcurve" smooth="yes"/>
      <point x="630" y="319" type="line"/>
      <point x="621" y="237" type="line"/>
      <point x="371" y="237" type="line" smooth="yes"/>
      <point x="250" y="237"/>
      <point x="145" y="185"/>
      <point x="145" y="151" type="qcurve"/>
      <point x="145" y="113"/>
      <point x="243" y="78"/>
      <point x="310" y="78" type="qcurve"/>
      <point x="398" y="78"/>
      <point x="560" y="137"/>
      <point x="596" y="174" type="qcurve"/>
      <point x="620" y="107" type="line"/>
      <point x="580" y="65"/>
      <point x="403" y="-10"/>
      <point x="306" y="-10" type="qcurve"/>
      <point x="207" y="-10"/>
      <point x="48" y="67"/>
      <point x="48" y="149" type="qcurve"/>
      <point x="48" y="227"/>
      <point x="208" y="319"/>
    </contour>
  </outline>
</glyph>
<glyph name="commaaccentcomb.case" format="2">
  <anchor x="79" y="100" name="_bottom"/>
  <anchor x="78" y="-230" name="bottom"/>
  <outline>
    <contour>
      <point x="99" y="-243" type="qcurve"/>
      <point x="75" y="-201" type="line"/>
      <point x="95" y="-197"/>
      <point x="129" y="-165"/>
      <point x="129" y="-149" type="qcurve" smooth="yes"/>
      <point x="129" y="-140"/>
      <point x="117" y="-134"/>
      <point x="109" y="-131" type="qcurve" smooth="yes"/>
      <point x="99" y="-128"/>
      <point x="80" y="-115"/>
      <point x="80" y="-94" type="qcurve"/>
      <point x="80" y="-70"/>
      <point x="118" y="-45"/>
      <point x="145" y="-45" type="qcurve"/>
      <point x="172" y="-45"/>
      <point x="223" y="-82"/>
      <point x="223" y="-122" type="qcurve" smooth="yes"/>
      <point x="223" y="-174"/>
      <point x="125" y="-234"/>
    </contour>
  </outline>
</glyph>
<glyph name="hookabovecomb.case" format="2">
  <anchor x="171" y="534" name="_top"/>
  <anchor x="149" y="760" name="top"/>
  <outline>
    <contour>
      <point x="83" y="666" type="qcurve"/>
      <point x="50" y="714" type="line"/>
      <point x="69.40298507462686" y="733.4029850746268"/>
      <point x="113.65671641791045" y="760.0"/>
      <point x="145" y="760" type="qcurve" smooth="yes"/>
      <point x="205.44776119402985" y="760.0"/>
      <point x="247.0" y="703.3731343283582"/>
      <point x="247" y="678" type="qcurve" smooth="yes"/>
      <point x="247.0" y="660.8358208955224"/>
      <point x="233.44776119402985" y="635.9253731343283"/>
      <point x="223" y="621" type="qcurve" smooth="yes"/>
      <point x="219.26865671641792" y="615.776119402985"/>
      <point x="203.7462686567164" y="587.7014925373135"/>
      <point x="203" y="578" type="qcurve"/>
      <point x="135" y="578" type="line"/>
      <point x="135.0" y="589.1940298507462"/>
      <point x="142.7910447761194" y="615.8059701492538"/>
      <point x="151" y="627" type="qcurve" smooth="yes"/>
      <point x="160.70149253731344" y="639.6865671641791"/>
      <point x="176.0" y="661.2985074626865"/>
      <point x="176" y="671" type="qcurve" smooth="yes"/>
      <point x="176.0" y="683.6865671641791"/>
      <point x="162.6417910447761" y="699.0"/>
      <point x="141" y="699" type="qcurve" smooth="yes"/>
      <point x="123.83582089552239" y="699.0"/>
      <point x="95" y="678"/>
    </contour>
  </outline>
</glyph>
<glyph name="ring.case" format="2">
  <advance width="336"/>
  <anchor x="155" y="628" name="_top"/>
  <outline>
    <contour>
      <point x="277" y="835" type="qcurve"/>
      <point x="277" y="792"/>
      <point x="212" y="731"/>
      <point x="168" y="731" type="qcurve"/>
      <point x="124" y="731"/>
      <point x="59" y="792"/>
      <point x="59" y="835" type="qcurve"/>
      <point x="59" y="880"/>
      <point x="124" y="941"/>
      <point x="168" y="941" type="qcurve"/>
      <point x="212" y="941"/>
      <point x="277" y="880"/>
    </contour>
    <contour>
      <point x="120" y="835" type="qcurve"/>
      <point x="120" y="816"/>
      <point x="147" y="791"/>
      <point x="168" y="791" type="qcurve"/>
      <point x="189" y="791"/>
      <point x="216" y="816"/>
      <point x="216" y="835" type="qcurve"/>
      <point x="216" y="857"/>
      <point x="187" y="881"/>
      <point x="168" y="881" type="qcurve"/>
      <point x="147" y="881"/>
      <point x="120" y="856"/>
    </contour>
  </outline>
</glyph>
<glyph name="ringcomb.case" format="2">
  <anchor x="159" y="799" name="_top"/>
  <anchor x="159" y="991" name="top"/>
  <outline>
    <contour>
      <point x="269" y="852" type="qcurve"/>
      <point x="269.0" y="809"/>
      <point x="202.28358208955223" y="747.0"/>
      <point x="159" y="747" type="qcurve"/>
      <point x="116.46268656716418" y="747.0"/>
      <point x="50.0" y="809.4626865671642"/>
      <point x="50" y="852" type="qcurve"/>
      <point x="50.0" y="896.0298507462686"/>
      <point x="116.46268656716418" y="958.0"/>
      <point x="159" y="958" type="qcurve"/>
      <point x="202.28358208955223" y="958.0"/>
      <point x="269.0" y="896"/>
    </contour>
    <contour>
      <point x="110" y="852" type="qcurve"/>
      <point x="110.0" y="833"/>
      <point x="138.8507462686567" y="806.0"/>
      <point x="159" y="806" type="qcurve"/>
      <point x="179.8955223880597" y="806.0"/>
      <point x="209.0" y="832.5970149253732"/>
      <point x="209" y="852" type="qcurve"/>
      <point x="209.0" y="874.3880597014926"/>
      <point x="178.40298507462686" y="899.0"/>
      <point x="159" y="899" type="qcurve"/>
      <point x="138.8507462686567" y="899.0"/>
      <point x="110.0" y="873"/>
    </contour>
  </outline>
</glyph>
<glyph name="six.dnom" format="2">
  <advance width="333"/>
  <outline>
    <contour>
      <point x="293" y="118" type="qcurve"/>
      <point x="293.0" y="61"/>
      <point x="214.98507462686567" y="-11.0"/>
      <point x="162" y="-11" type="qcurve"/>
      <point x="100.05970149253733" y="-11.0"/>
      <point x="30.0" y="81.53731343283582"/>
      <point x="30" y="139" type="qcurve"/>
      <point x="30.0" y="231.53731343283582"/>
      <point x="122.58208955223881" y="358.0"/>
      <point x="189" y="358" type="qcurve"/>
      <point x="211.38805970149252" y="358.0"/>
      <point x="261.3134328358209" y="339.43283582089555"/>
      <point x="274" y="326" type="qcurve"/>
      <point x="246" y="269" type="line"/>
      <point x="234.80597014925374" y="276.46268656716416"/>
      <point x="210.65671641791045" y="285.0"/>
      <point x="192" y="285" type="qcurve"/>
      <point x="163.6417910447761" y="285.0"/>
      <point x="118.98507462686567" y="231.73134328358208"/>
      <point x="116" y="178" type="qcurve"/>
      <point x="64" y="117" type="line"/>
      <point x="80.41791044776119" y="167.0"/>
      <point x="142.9402985074627" y="223.0"/>
      <point x="181" y="223" type="qcurve"/>
      <point x="232.49253731343282" y="223.0"/>
      <point x="293.0" y="161"/>
    </contour>
    <contour>
      <point x="109" y="108" type="qcurve"/>
      <point x="109.0" y="85"/>
      <point x="138.11940298507463" y="52.0"/>
      <point x="162" y="52" type="qcurve"/>
      <point x="182.1492537313433" y="52.0"/>
      <point x="214.0" y="83.86567164179104"/>
      <point x="214" y="107" type="qcurve"/>
      <point x="214.0" y="128.6417910447761"/>
      <point x="184.6417910447761" y="161.0"/>
      <point x="163" y="161" type="qcurve"/>
      <point x="139.11940298507463" y="161.0"/>
      <point x="109.0" y="129"/>
    </contour>
  </outline>
</glyph>
<glyph name="three.dnom" format="2">
  <advance width="342"/>
  <outline>
    <contour>
      <point x="297" y="111" type="qcurve"/>
      <point x="297.0" y="53"/>
      <point x="214.25373134328356" y="-10.0"/>
      <point x="165" y="-10" type="qcurve"/>
      <point x="135.8955223880597" y="-10.0"/>
      <point x="77.14925373134328" y="9.074626865671643"/>
      <point x="57" y="24" type="qcurve"/>
      <point x="90" y="79" type="line"/>
      <point x="111.64179104477611" y="65.56716417910448"/>
      <point x="144.82089552238807" y="56.0"/>
      <point x="159" y="56" type="qcurve"/>
      <point x="182.88059701492537" y="56.0"/>
      <point x="222.0" y="82.38805970149254"/>
      <point x="222" y="110" type="qcurve"/>
      <point x="222.0" y="130.8955223880597"/>
      <point x="189.62686567164178" y="155.0"/>
      <point x="165" y="155" type="qcurve"/>
      <point x="150.07462686567163" y="155.0"/>
      <point x="121.68656716417911" y="146.73134328358208"/>
      <point x="109" y="143" type="qcurve"/>
      <point x="88" y="200" type="line"/>
      <point x="190" y="288" type="line"/>
      <point x="209" y="282" type="line"/>
      <point x="79" y="282" type="line"/>
      <point x="79" y="350" type="line"/>
      <point x="265" y="350" type="line"/>
      <point x="272" y="284" type="line"/>
      <point x="173" y="202" type="line"/>
      <point x="160" y="209" type="line"/>
      <point x="162.98507462686567" y="210.49253731343285"/>
      <point x="179.28358208955223" y="216.0"/>
      <point x="186" y="216" type="qcurve"/>
      <point x="240.47761194029852" y="216.0"/>
      <point x="297.0" y="156"/>
    </contour>
  </outline>
</glyph>
